{"title":"A.Scanner.Darkly.2006.720p.BRRip.XviD.AC3-PsychoLogic","uid":6553087,"size":2639353140,"categoryP":"video","categoryS":"hd___movies","magnet":"?xt=urn:btih:4c3f76a5caa5da997676e5524da98ae4e83622c9&amp;dn=A.Scanner.Darkly.2006.720p.BRRip.XviD.AC3-PsychoLogic&amp;tr=udp%3A%2F%2Ftracker.openbittorrent.com%3A80&amp;tr=udp%3A%2F%2Fopen.demonii.com%3A1337&amp;tr=udp%3A%2F%2Ftracker.coppersurfer.tk%3A6969&amp;tr=udp%3A%2F%2Fexodus.desync.com%3A6969","seeders":0,"leechers":0,"uploader":"PsychoLogic","files":11,"time":1311180163,"description":"Release Information:\n\nA.Scanner.Darkly.2006.720p.BRRip.XviD.AC3-PsychoLogic\n\nSource                           : A.Scanner.Darkly.2006.1080p.BluRay.X264-MySiLU\nSubtitles                        : Croatian, Dutch, English, French, Polish, Portuguese, Swedish\nLanguage                         : English\nEncoded By                       : PsychoLogic\nSample Included                  : Yes\n\nMovie Information                : http://www.imdb.com/title/tt0405296/\nGenre                            : Animation | Crime | Drama\nDirector                         : Richard Linklater\nCast                             : Keanu Reeves, Winona Ryder and Robert Downey Jr.\nPlot                             : An undercover cop in a not-too-distant future becomes involved with a dangerous new drug and begins to lose his own identity as a result. \n\nGeneral\nFormat                           : AVI\nFormat/Info                      : Audio Video Interleave\nFormat profile                   : OpenDML\nFile size                        : 2.43 GiB\nDuration                         : 1h 40mn\nOverall bit rate                 : 3 459 Kbps\nWriting application              : VirtualDubMod 1.5.10.2 (build 2540/release)\nWriting library                  : VirtualDubMod build 2540/release\n\nVideo\nID                               : 0\nFormat                           : MPEG-4 Visual\nFormat profile                   : Advanced Simple@L5\nFormat settings, BVOP            : 2\nFormat settings, QPel            : No\nFormat settings, GMC             : No warppoints\nFormat settings, Matrix          : Default (H.263)\nCodec ID                         : XVID\nCodec ID/Hint                    : XviD\nDuration                         : 1h 40mn\nBit rate                         : 3 000 Kbps\nWidth                            : 1 280 pixels\nHeight                           : 720 pixels\nDisplay aspect ratio             : 16:9\nFrame rate                       : 23.976 fps\nColor space                      : YUV\nChroma subsampling               : 4:2:0\nBit depth                        : 8 bits\nScan type                        : Progressive\nCompression mode                 : Lossy\nBits/(Pixel*Frame)               : 0.136\nStream size                      : 2.10 GiB (87%)\nWriting library                  : XviD 1.2.1 (UTC 2008-12-04)\n\nAudio\nID                               : 1\nFormat                           : AC-3\nFormat/Info                      : Audio Coding 3\nMode extension                   : CM (complete main)\nCodec ID                         : 2000\nDuration                         : 1h 40mn\nBit rate mode                    : Constant\nBit rate                         : 448 Kbps\nChannel(s)                       : 6 channels\nChannel positions                : Front: L C R, Side: L R, LFE\nSampling rate                    : 48.0 KHz\nBit depth                        : 16 bits\nCompression mode                 : Lossy\nStream size                      : 322 MiB (13%)\nAlignment                        : Split accross interleaves\nInterleave, duration             : 42 ms (1.00 video frame)\nInterleave, preload duration     : 500 ms\n\n","torrent":{"xt":"urn:btih:4c3f76a5caa5da997676e5524da98ae4e83622c9","amp;dn":"A.Scanner.Darkly.2006.720p.BRRip.XviD.AC3-PsychoLogic","amp;tr":["udp%3A%2F%2Ftracker.openbittorrent.com%3A80","udp%3A%2F%2Fopen.demonii.com%3A1337","udp%3A%2F%2Ftracker.coppersurfer.tk%3A6969","udp%3A%2F%2Fexodus.desync.com%3A6969"],"infoHash":"4c3f76a5caa5da997676e5524da98ae4e83622c9","infoHashBuffer":{"type":"Buffer","data":[76,63,118,165,202,165,218,153,118,118,229,82,77,169,138,228,232,54,34,201]},"announce":[],"urlList":[]}}